<?xml version="1.0" encoding="utf-8" standalone="no"?>
<!DOCTYPE svg PUBLIC "-//W3C//DTD SVG 1.1//EN"
  "http://www.w3.org/Graphics/SVG/1.1/DTD/svg11.dtd">
<svg xmlns:xlink="http://www.w3.org/1999/xlink" width="630.566857pt" height="349.615234pt" viewBox="0 0 630.566857 349.615234" xmlns="http://www.w3.org/2000/svg" version="1.1">
 <metadata>
  <rdf:RDF xmlns:dc="http://purl.org/dc/elements/1.1/" xmlns:cc="http://creativecommons.org/ns#" xmlns:rdf="http://www.w3.org/1999/02/22-rdf-syntax-ns#">
   <cc:Work>
    <dc:type rdf:resource="http://purl.org/dc/dcmitype/StillImage"/>
    <dc:date>2024-11-30T18:41:12.551463</dc:date>
    <dc:format>image/svg+xml</dc:format>
    <dc:creator>
     <cc:Agent>
      <dc:title>Matplotlib v3.9.1, https://matplotlib.org/</dc:title>
     </cc:Agent>
    </dc:creator>
   </cc:Work>
  </rdf:RDF>
 </metadata>
 <defs>
  <style type="text/css">*{stroke-linejoin: round; stroke-linecap: butt}</style>
 </defs>
 <g id="figure_1">
  <g id="patch_1">
   <path d="M 0 349.615234 
L 630.566857 349.615234 
L 630.566857 0 
L 0 0 
z
" style="fill: #ffffff"/>
  </g>
  <g id="axes_1">
   <g id="patch_2">
    <path d="M 65.366857 284.4 
L 623.366857 284.4 
L 623.366857 7.2 
L 65.366857 7.2 
z
" style="fill: #ffffff"/>
   </g>
   <g id="matplotlib.axis_1">
    <g id="xtick_1">
     <g id="line2d_1">
      <defs>
       <path id="m32fbfc8357" d="M 0 0 
L 0 8 
" style="stroke: #000000; stroke-width: 1.5"/>
      </defs>
      <g>
       <use xlink:href="#m32fbfc8357" x="99.046439" y="284.4" style="stroke: #000000; stroke-width: 1.5"/>
      </g>
     </g>
     <g id="text_1">
      <!-- $\mathdefault{0}$ -->
      <g transform="translate(94.477392 314.649892) scale(0.2 -0.2)">
       <defs>
        <path id="CMR17-30" d="M 2688 2038 
C 2688 2430 2682 3099 2413 3613 
C 2176 4063 1798 4224 1466 4224 
C 1158 4224 768 4082 525 3620 
C 269 3137 243 2539 243 2038 
C 243 1671 250 1112 448 623 
C 723 -39 1216 -128 1466 -128 
C 1760 -128 2208 -7 2470 604 
C 2662 1048 2688 1568 2688 2038 
z
M 1466 -26 
C 1056 -26 813 328 723 816 
C 653 1196 653 1749 653 2109 
C 653 2604 653 3015 736 3407 
C 858 3954 1216 4121 1466 4121 
C 1728 4121 2067 3947 2189 3420 
C 2272 3054 2278 2623 2278 2109 
C 2278 1691 2278 1176 2202 797 
C 2067 96 1690 -26 1466 -26 
z
" transform="scale(0.015625)"/>
       </defs>
       <use xlink:href="#CMR17-30" transform="scale(0.996264)"/>
      </g>
     </g>
    </g>
    <g id="xtick_2">
     <g id="line2d_2">
      <g>
       <use xlink:href="#m32fbfc8357" x="182.205903" y="284.4" style="stroke: #000000; stroke-width: 1.5"/>
      </g>
     </g>
     <g id="text_2">
      <!-- $\mathdefault{1}$ -->
      <g transform="translate(177.636855 314.649892) scale(0.2 -0.2)">
       <defs>
        <path id="CMR17-31" d="M 1702 4083 
C 1702 4217 1696 4224 1606 4224 
C 1357 3927 979 3833 621 3820 
C 602 3820 570 3820 563 3808 
C 557 3795 557 3782 557 3648 
C 755 3648 1088 3686 1344 3839 
L 1344 467 
C 1344 243 1331 166 781 166 
L 589 166 
L 589 0 
C 896 6 1216 12 1523 12 
C 1830 12 2150 6 2458 0 
L 2458 166 
L 2266 166 
C 1715 166 1702 236 1702 467 
L 1702 4083 
z
" transform="scale(0.015625)"/>
       </defs>
       <use xlink:href="#CMR17-31" transform="scale(0.996264)"/>
      </g>
     </g>
    </g>
    <g id="xtick_3">
     <g id="line2d_3">
      <g>
       <use xlink:href="#m32fbfc8357" x="265.365366" y="284.4" style="stroke: #000000; stroke-width: 1.5"/>
      </g>
     </g>
     <g id="text_3">
      <!-- $\mathdefault{2}$ -->
      <g transform="translate(260.796319 314.649892) scale(0.2 -0.2)">
       <defs>
        <path id="CMR17-32" d="M 2669 990 
L 2554 990 
C 2490 537 2438 460 2413 422 
C 2381 371 1920 371 1830 371 
L 602 371 
C 832 620 1280 1073 1824 1596 
C 2214 1966 2669 2400 2669 3033 
C 2669 3788 2067 4224 1395 4224 
C 691 4224 262 3603 262 3027 
C 262 2777 448 2745 525 2745 
C 589 2745 781 2783 781 3007 
C 781 3206 614 3264 525 3264 
C 486 3264 448 3257 422 3244 
C 544 3788 915 4057 1306 4057 
C 1862 4057 2227 3616 2227 3033 
C 2227 2477 1901 1998 1536 1583 
L 262 147 
L 262 0 
L 2515 0 
L 2669 990 
z
" transform="scale(0.015625)"/>
       </defs>
       <use xlink:href="#CMR17-32" transform="scale(0.996264)"/>
      </g>
     </g>
    </g>
    <g id="xtick_4">
     <g id="line2d_4">
      <g>
       <use xlink:href="#m32fbfc8357" x="348.52483" y="284.4" style="stroke: #000000; stroke-width: 1.5"/>
      </g>
     </g>
     <g id="text_4">
      <!-- $\mathdefault{3}$ -->
      <g transform="translate(343.955782 314.649892) scale(0.2 -0.2)">
       <defs>
        <path id="CMR17-33" d="M 1414 2176 
C 1984 2176 2234 1673 2234 1094 
C 2234 322 1824 25 1453 25 
C 1114 25 563 193 390 691 
C 422 678 454 678 486 678 
C 640 678 755 780 755 947 
C 755 1132 614 1216 486 1216 
C 378 1216 211 1164 211 927 
C 211 335 787 -128 1466 -128 
C 2176 -128 2720 432 2720 1087 
C 2720 1718 2208 2176 1600 2246 
C 2086 2347 2554 2776 2554 3353 
C 2554 3856 2048 4224 1472 4224 
C 890 4224 378 3862 378 3347 
C 378 3123 544 3084 627 3084 
C 762 3084 877 3167 877 3334 
C 877 3500 762 3584 627 3584 
C 602 3584 570 3584 544 3571 
C 730 3999 1235 4076 1459 4076 
C 1683 4076 2106 3966 2106 3347 
C 2106 3167 2080 2851 1862 2574 
C 1670 2329 1453 2316 1242 2297 
C 1210 2297 1062 2284 1037 2284 
C 992 2278 966 2272 966 2227 
C 966 2182 973 2176 1101 2176 
L 1414 2176 
z
" transform="scale(0.015625)"/>
       </defs>
       <use xlink:href="#CMR17-33" transform="scale(0.996264)"/>
      </g>
     </g>
    </g>
    <g id="xtick_5">
     <g id="line2d_5">
      <g>
       <use xlink:href="#m32fbfc8357" x="431.684293" y="284.4" style="stroke: #000000; stroke-width: 1.5"/>
      </g>
     </g>
     <g id="text_5">
      <!-- $\mathdefault{4}$ -->
      <g transform="translate(427.115246 314.649892) scale(0.2 -0.2)">
       <defs>
        <path id="CMR17-34" d="M 2150 4147 
C 2150 4281 2144 4288 2029 4288 
L 128 1254 
L 128 1088 
L 1779 1088 
L 1779 460 
C 1779 230 1766 166 1318 166 
L 1197 166 
L 1197 0 
C 1402 12 1747 12 1965 12 
C 2182 12 2528 12 2733 0 
L 2733 166 
L 2611 166 
C 2163 166 2150 230 2150 460 
L 2150 1088 
L 2803 1088 
L 2803 1254 
L 2150 1254 
L 2150 4147 
z
M 1798 3723 
L 1798 1254 
L 256 1254 
L 1798 3723 
z
" transform="scale(0.015625)"/>
       </defs>
       <use xlink:href="#CMR17-34" transform="scale(0.996264)"/>
      </g>
     </g>
    </g>
    <g id="xtick_6">
     <g id="line2d_6">
      <g>
       <use xlink:href="#m32fbfc8357" x="514.843757" y="284.4" style="stroke: #000000; stroke-width: 1.5"/>
      </g>
     </g>
     <g id="text_6">
      <!-- $\mathdefault{5}$ -->
      <g transform="translate(510.274709 314.649892) scale(0.2 -0.2)">
       <defs>
        <path id="CMR17-35" d="M 730 3750 
C 794 3724 1056 3641 1325 3641 
C 1920 3641 2246 3961 2432 4140 
C 2432 4191 2432 4224 2394 4224 
C 2387 4224 2374 4224 2323 4198 
C 2099 4102 1837 4032 1517 4032 
C 1325 4032 1037 4055 723 4191 
C 653 4224 640 4224 634 4224 
C 602 4224 595 4217 595 4090 
L 595 2231 
C 595 2113 595 2080 659 2080 
C 691 2080 704 2093 736 2139 
C 941 2435 1222 2560 1542 2560 
C 1766 2560 2246 2415 2246 1293 
C 2246 1087 2246 716 2054 422 
C 1894 159 1645 25 1370 25 
C 947 25 518 319 403 812 
C 429 806 480 793 506 793 
C 589 793 749 838 749 1036 
C 749 1209 627 1280 506 1280 
C 358 1280 262 1190 262 1011 
C 262 454 704 -128 1382 -128 
C 2042 -128 2669 441 2669 1267 
C 2669 2054 2170 2662 1549 2662 
C 1222 2662 947 2540 730 2304 
L 730 3750 
z
" transform="scale(0.015625)"/>
       </defs>
       <use xlink:href="#CMR17-35" transform="scale(0.996264)"/>
      </g>
     </g>
    </g>
    <g id="xtick_7">
     <g id="line2d_7">
      <g>
       <use xlink:href="#m32fbfc8357" x="598.00322" y="284.4" style="stroke: #000000; stroke-width: 1.5"/>
      </g>
     </g>
     <g id="text_7">
      <!-- $\mathdefault{6}$ -->
      <g transform="translate(593.434173 314.649892) scale(0.2 -0.2)">
       <defs>
        <path id="CMR17-36" d="M 678 2198 
C 678 3712 1395 4076 1811 4076 
C 1946 4076 2272 4049 2400 3782 
C 2298 3782 2106 3782 2106 3558 
C 2106 3385 2246 3328 2336 3328 
C 2394 3328 2566 3353 2566 3571 
C 2566 3987 2246 4224 1805 4224 
C 1043 4224 243 3411 243 2011 
C 243 257 966 -128 1478 -128 
C 2099 -128 2688 431 2688 1295 
C 2688 2101 2170 2688 1517 2688 
C 1126 2688 838 2430 678 1979 
L 678 2198 
z
M 1478 25 
C 691 25 691 1212 691 1450 
C 691 1914 909 2585 1504 2585 
C 1613 2585 1926 2585 2138 2140 
C 2253 1889 2253 1624 2253 1302 
C 2253 954 2253 696 2118 438 
C 1978 173 1773 25 1478 25 
z
" transform="scale(0.015625)"/>
       </defs>
       <use xlink:href="#CMR17-36" transform="scale(0.996264)"/>
      </g>
     </g>
    </g>
    <g id="text_8">
     <!-- $t\:\:[\text{с}]$ -->
     <g transform="translate(327.279331 337.45059) scale(0.2 -0.2)">
      <defs>
       <path id="CMMI12-74" d="M 1286 2566 
L 1875 2566 
C 1997 2566 2061 2566 2061 2681 
C 2061 2752 2022 2752 1894 2752 
L 1331 2752 
L 1568 3664 
C 1594 3752 1594 3764 1594 3808 
C 1594 3910 1510 3968 1427 3968 
C 1376 3968 1229 3948 1178 3746 
L 928 2752 
L 326 2752 
C 198 2752 141 2752 141 2630 
C 141 2566 186 2566 307 2566 
L 877 2566 
L 454 881 
C 403 657 384 593 384 510 
C 384 210 595 -64 954 -64 
C 1600 -64 1946 868 1946 913 
C 1946 951 1920 970 1882 970 
C 1869 970 1843 970 1830 944 
C 1824 938 1818 932 1773 830 
C 1638 510 1344 64 973 64 
C 781 64 768 223 768 364 
C 768 370 768 491 787 568 
L 1286 2566 
z
" transform="scale(0.015625)"/>
       <path id="CMR17-5b" d="M 1504 -1600 
L 1504 -1376 
L 902 -1376 
L 902 4575 
L 1504 4575 
L 1504 4800 
L 678 4800 
L 678 -1600 
L 1504 -1600 
z
" transform="scale(0.015625)"/>
       <path id="SFSS3583-f1" d="M 2362 564 
C 2086 381 1869 198 1472 198 
C 838 198 538 800 538 1324 
C 538 1821 800 2456 1389 2489 
L 1440 2489 
C 1792 2489 2022 2410 2304 2253 
C 2317 2319 2342 2404 2342 2469 
C 2342 2681 1568 2752 1459 2752 
C 736 2752 346 2044 314 1409 
L 314 1337 
C 314 689 704 -64 1459 -64 
C 1773 -64 2061 51 2304 237 
C 2342 276 2374 296 2374 348 
L 2374 394 
C 2368 453 2362 506 2362 564 
z
" transform="scale(0.015625)"/>
       <path id="CMR17-5d" d="M 915 4800 
L 90 4800 
L 90 4575 
L 691 4575 
L 691 -1376 
L 90 -1376 
L 90 -1600 
L 915 -1600 
L 915 4800 
z
" transform="scale(0.015625)"/>
      </defs>
      <use xlink:href="#CMMI12-74" transform="scale(0.996264)"/>
      <use xlink:href="#CMR17-5b" transform="translate(79.504744 0) scale(0.996264)"/>
      <use xlink:href="#SFSS3583-f1" transform="translate(104.375803 0) scale(0.996264)"/>
      <use xlink:href="#CMR17-5d" transform="translate(144.056057 0) scale(0.996264)"/>
     </g>
    </g>
   </g>
   <g id="matplotlib.axis_2">
    <g id="ytick_1">
     <g id="line2d_8">
      <defs>
       <path id="m2658f54f3a" d="M 0 0 
L -8 0 
" style="stroke: #000000; stroke-width: 1.5"/>
      </defs>
      <g>
       <use xlink:href="#m2658f54f3a" x="65.366857" y="270.371809" style="stroke: #000000; stroke-width: 1.5"/>
      </g>
     </g>
     <g id="text_9">
      <!-- $\mathdefault{0}$ -->
      <g transform="translate(40.228761 277.496755) scale(0.2 -0.2)">
       <use xlink:href="#CMR17-30" transform="scale(0.996264)"/>
      </g>
     </g>
    </g>
    <g id="ytick_2">
     <g id="line2d_9">
      <g>
       <use xlink:href="#m2658f54f3a" x="65.366857" y="221.555133" style="stroke: #000000; stroke-width: 1.5"/>
      </g>
     </g>
     <g id="text_10">
      <!-- $\mathdefault{10}$ -->
      <g transform="translate(31.090666 228.680079) scale(0.2 -0.2)">
       <use xlink:href="#CMR17-31" transform="scale(0.996264)"/>
       <use xlink:href="#CMR17-30" transform="translate(45.690477 0) scale(0.996264)"/>
      </g>
     </g>
    </g>
    <g id="ytick_3">
     <g id="line2d_10">
      <g>
       <use xlink:href="#m2658f54f3a" x="65.366857" y="172.738457" style="stroke: #000000; stroke-width: 1.5"/>
      </g>
     </g>
     <g id="text_11">
      <!-- $\mathdefault{20}$ -->
      <g transform="translate(31.090666 179.863404) scale(0.2 -0.2)">
       <use xlink:href="#CMR17-32" transform="scale(0.996264)"/>
       <use xlink:href="#CMR17-30" transform="translate(45.690477 0) scale(0.996264)"/>
      </g>
     </g>
    </g>
    <g id="ytick_4">
     <g id="line2d_11">
      <g>
       <use xlink:href="#m2658f54f3a" x="65.366857" y="123.921782" style="stroke: #000000; stroke-width: 1.5"/>
      </g>
     </g>
     <g id="text_12">
      <!-- $\mathdefault{30}$ -->
      <g transform="translate(31.090666 131.046728) scale(0.2 -0.2)">
       <use xlink:href="#CMR17-33" transform="scale(0.996264)"/>
       <use xlink:href="#CMR17-30" transform="translate(45.690477 0) scale(0.996264)"/>
      </g>
     </g>
    </g>
    <g id="ytick_5">
     <g id="line2d_12">
      <g>
       <use xlink:href="#m2658f54f3a" x="65.366857" y="75.105106" style="stroke: #000000; stroke-width: 1.5"/>
      </g>
     </g>
     <g id="text_13">
      <!-- $\mathdefault{40}$ -->
      <g transform="translate(31.090666 82.230052) scale(0.2 -0.2)">
       <use xlink:href="#CMR17-34" transform="scale(0.996264)"/>
       <use xlink:href="#CMR17-30" transform="translate(45.690477 0) scale(0.996264)"/>
      </g>
     </g>
    </g>
    <g id="ytick_6">
     <g id="line2d_13">
      <g>
       <use xlink:href="#m2658f54f3a" x="65.366857" y="26.28843" style="stroke: #000000; stroke-width: 1.5"/>
      </g>
     </g>
     <g id="text_14">
      <!-- $\mathdefault{50}$ -->
      <g transform="translate(31.090666 33.413377) scale(0.2 -0.2)">
       <use xlink:href="#CMR17-35" transform="scale(0.996264)"/>
       <use xlink:href="#CMR17-30" transform="translate(45.690477 0) scale(0.996264)"/>
      </g>
     </g>
    </g>
    <g id="text_15">
     <!-- $h\:\:[\text{м}]$ -->
     <g transform="translate(22.126022 167.061798) rotate(-90) scale(0.2 -0.2)">
      <defs>
       <path id="CMMI12-68" d="M 1798 4255 
C 1805 4281 1818 4319 1818 4351 
C 1818 4416 1754 4416 1741 4416 
C 1734 4416 1421 4390 1389 4383 
C 1280 4377 1184 4364 1069 4358 
C 909 4345 864 4339 864 4223 
C 864 4159 915 4159 1005 4159 
C 1318 4159 1325 4103 1325 4040 
C 1325 4002 1312 3951 1306 3932 
L 378 249 
C 352 153 352 140 352 102 
C 352 -39 461 -64 525 -64 
C 634 -64 717 19 749 89 
L 1037 1245 
C 1069 1385 1107 1519 1139 1660 
C 1210 1928 1210 1934 1331 2119 
C 1453 2305 1741 2687 2234 2687 
C 2490 2687 2579 2496 2579 2241 
C 2579 1883 2330 1187 2189 804 
C 2131 651 2099 568 2099 453 
C 2099 166 2298 -64 2605 -64 
C 3200 -64 3424 874 3424 913 
C 3424 945 3398 970 3360 970 
C 3302 970 3296 951 3264 842 
C 3117 332 2880 64 2624 64 
C 2560 64 2458 70 2458 274 
C 2458 440 2534 645 2560 715 
C 2675 1021 2963 1775 2963 2145 
C 2963 2528 2739 2816 2253 2816 
C 1888 2816 1568 2643 1306 2311 
L 1798 4255 
z
" transform="scale(0.015625)"/>
       <path id="SFSS3583-ec" d="M 538 2688 
L 538 0 
L 819 0 
L 826 2352 
C 877 2146 992 1927 1082 1721 
L 1715 174 
C 1734 135 1747 51 1798 38 
L 1990 38 
C 2080 38 2176 367 2240 528 
C 2406 934 2573 1334 2739 1740 
L 2906 2133 
C 2938 2211 2976 2288 2995 2365 
L 3002 0 
L 3283 0 
L 3283 2688 
L 2874 2688 
L 1907 360 
L 934 2675 
L 819 2688 
L 538 2688 
z
" transform="scale(0.015625)"/>
      </defs>
      <use xlink:href="#CMMI12-68" transform="scale(0.996264)"/>
      <use xlink:href="#CMR17-5b" transform="translate(100.433038 0) scale(0.996264)"/>
      <use xlink:href="#SFSS3583-ec" transform="translate(125.304096 0) scale(0.996264)"/>
      <use xlink:href="#CMR17-5d" transform="translate(184.861913 0) scale(0.996264)"/>
     </g>
    </g>
   </g>
   <g id="line2d_14">
    <path d="M 99.046439 270.371809 
L 100.258365 270.265809 
L 101.612869 269.917164 
L 103.038664 269.311044 
L 104.535748 268.425007 
L 106.104122 267.228369 
L 107.672496 265.754096 
L 109.31216 263.902828 
L 110.951823 261.70862 
L 112.591487 259.126521 
L 114.516309 255.616391 
L 122.2156 241.586627 
L 129.8436 228.145549 
L 137.400311 215.276863 
L 144.885732 202.964743 
L 152.299863 191.193784 
L 159.642705 179.948989 
L 166.914257 169.215752 
L 174.114519 158.979845 
L 181.243492 149.227402 
L 188.301174 139.944908 
L 195.287567 131.119182 
L 202.20267 122.737343 
L 209.046484 114.786777 
L 215.819008 107.255238 
L 222.520242 100.130755 
L 229.150186 93.401616 
L 235.780131 86.989088 
L 242.338785 80.955888 
L 248.82615 75.290892 
L 255.242225 69.983205 
L 261.587011 65.022157 
L 267.860507 60.397293 
L 274.062713 56.098367 
L 280.193629 52.115335 
L 286.324545 48.396625 
L 292.384172 44.980325 
L 298.372509 41.856835 
L 304.360846 38.984011 
L 310.277893 36.391184 
L 316.12365 34.069164 
L 321.969407 31.98494 
L 327.743875 30.15932 
L 333.518343 28.565215 
L 339.29281 27.20242 
L 344.995988 26.083322 
L 350.699166 25.189546 
L 356.402344 24.520844 
L 362.105522 24.077187 
L 367.8087 23.858607 
L 373.440588 23.86364 
L 379.143766 24.09239 
L 384.846944 24.546153 
L 390.550122 25.224853 
L 396.2533 26.128389 
L 401.956478 27.25663 
L 407.730946 28.627752 
L 413.505414 30.228883 
L 419.279881 32.059804 
L 425.125639 34.14714 
L 430.971396 36.469436 
L 436.888443 39.059006 
L 442.87678 41.924176 
L 448.936407 45.073314 
L 454.996033 48.473339 
L 461.126949 52.168199 
L 467.329155 56.166285 
L 473.602651 60.476018 
L 479.947437 65.105839 
L 486.363512 70.064206 
L 492.850877 75.359586 
L 499.409531 81.000453 
L 506.039476 86.995274 
L 512.812 93.421748 
L 519.655813 100.22552 
L 526.570916 107.415072 
L 533.557309 114.998851 
L 540.686282 123.067593 
L 547.886544 131.553973 
L 555.229386 140.5554 
L 562.643517 149.997848 
L 570.200228 159.985474 
L 577.828228 170.437517 
L 585.598808 181.465093 
L 593.440678 192.980353 
L 598.00322 199.857798 
L 598.00322 199.857798 
" clip-path="url(#p919d63571f)" style="fill: none; stroke: #1f77b4; stroke-width: 1.5; stroke-linecap: square"/>
   </g>
   <g id="line2d_15">
    <path d="M 90.730493 270.371809 
L 98.214845 270.238382 
L 99.878034 269.704196 
L 101.541223 268.58516 
L 103.204412 267.105509 
L 104.036007 266.229789 
L 105.699196 263.998055 
L 107.362386 261.335703 
L 109.85717 256.692534 
L 114.015143 248.699404 
L 123.994278 230.338374 
L 129.815441 220.091532 
L 132.310225 215.744226 
L 135.636603 210.068411 
L 139.794576 203.28324 
L 143.120955 197.946192 
L 148.942117 188.919806 
L 153.931685 181.383031 
L 169.731983 157.849425 
L 172.226767 153.738416 
L 172.226767 153.738416 
" clip-path="url(#p919d63571f)" style="fill: none; stroke: #ff0000; stroke-width: 1.5; stroke-linecap: square"/>
   </g>
   <g id="line2d_16">
    <path d="M 90.730493 269.617565 
L 92.393682 269.744883 
L 93.225277 270.110543 
L 94.056871 270.602912 
L 94.888466 270.514806 
L 95.720061 271.8 
L 96.551655 269.391288 
L 97.38325 269.503521 
L 98.214845 269.970556 
L 99.878034 270.490075 
L 100.709629 269.216296 
L 101.541223 268.428836 
L 102.372818 269.356289 
L 103.204412 267.834408 
L 104.036007 263.224556 
L 104.867602 260.421149 
L 105.699196 255.498232 
L 107.362386 240.036415 
L 108.19398 237.568625 
L 110.688764 200.905258 
L 111.520359 190.78967 
L 113.183548 164.20113 
L 114.015143 163.954871 
L 114.846737 160.090981 
L 115.678332 146.549387 
L 116.509927 138.848467 
L 117.341521 140.05026 
L 119.004711 136.188044 
L 119.836305 134.937089 
L 120.6679 135.765417 
L 121.499494 135.442076 
L 122.331089 134.201392 
L 123.162684 134.682773 
L 123.994278 135.554702 
L 124.825873 134.347315 
L 125.657468 132.736611 
L 126.489062 132.033567 
L 131.47863 129.253967 
L 132.310225 128.480617 
L 133.141819 126.956882 
L 133.973414 127.35781 
L 134.805009 127.423208 
L 139.794576 123.135118 
L 140.626171 121.469397 
L 141.457766 117.198905 
L 143.120955 118.606724 
L 143.95255 117.403656 
L 144.784144 115.881295 
L 145.615739 114.979843 
L 146.447333 116.003057 
L 147.278928 114.074134 
L 148.110523 113.4901 
L 148.942117 114.866559 
L 150.605307 113.082977 
L 151.436901 110.675134 
L 152.268496 104.903132 
L 153.100091 106.259293 
L 153.931685 106.169604 
L 154.76328 108.025615 
L 155.594874 108.524281 
L 156.426469 106.146582 
L 157.258064 105.813278 
L 158.089658 108.492781 
L 158.921253 107.169431 
L 159.752848 106.801009 
L 160.584442 105.063113 
L 161.416037 104.383199 
L 162.247632 104.450969 
L 163.079226 98.33256 
L 163.910821 96.89734 
L 164.742415 97.098563 
L 165.57401 98.123465 
L 167.237199 100.800449 
L 168.068794 100.378632 
L 169.731983 96.212437 
L 170.563578 96.068786 
L 172.226767 94.669238 
L 173.058362 94.652257 
L 174.721551 90.477565 
L 175.553146 90.438768 
L 176.38474 90.012594 
L 177.216335 88.049032 
L 178.04793 86.820161 
L 178.879524 85.880445 
L 179.711119 85.486968 
L 180.542714 86.307259 
L 182.205903 83.706886 
L 183.037497 83.427375 
L 183.869092 82.987189 
L 184.700687 83.296411 
L 185.532281 82.989007 
L 186.363876 83.563797 
L 187.195471 83.405548 
L 188.027065 82.540931 
L 188.85866 81.884878 
L 189.690255 82.731318 
L 190.521849 81.685395 
L 191.353444 80.9301 
L 192.185038 79.313919 
L 193.016633 78.364319 
L 193.848228 78.315201 
L 194.679822 77.764286 
L 196.343012 75.429868 
L 197.174606 74.894377 
L 198.006201 75.762193 
L 198.837795 74.245472 
L 199.66939 73.451666 
L 200.500985 73.810034 
L 202.164174 71.511463 
L 202.995769 71.250666 
L 203.827363 69.091447 
L 204.658958 68.145235 
L 205.490553 68.145235 
L 206.322147 68.275644 
L 207.153742 67.820727 
L 207.985336 66.78653 
L 208.816931 69.405735 
L 209.648526 70.07706 
L 210.48012 69.527546 
L 211.311715 69.461434 
L 212.14331 68.71903 
L 212.974904 66.91148 
L 213.806499 69.405623 
L 214.638094 68.041813 
L 215.469688 67.352157 
L 216.301283 65.450823 
L 217.132877 65.843844 
L 217.964472 65.976744 
L 218.796067 65.304637 
L 219.627661 65.347707 
L 220.459256 64.767187 
L 221.290851 63.342237 
L 222.122445 64.149047 
L 222.95404 64.429914 
L 223.785635 62.442588 
L 224.617229 61.373073 
L 225.448824 58.816386 
L 226.280418 58.756457 
L 227.112013 58.052675 
L 227.943608 59.056765 
L 228.775202 60.421816 
L 229.606797 59.462342 
L 231.269986 60.210696 
L 232.101581 58.180674 
L 232.933176 57.251206 
L 234.596365 56.461027 
L 239.585933 53.762097 
L 240.417527 51.120929 
L 241.249122 49.590405 
L 244.5755 50.325751 
L 245.407095 49.373891 
L 246.23869 47.934129 
L 247.070284 47.538146 
L 248.733474 47.741449 
L 249.565068 48.17991 
L 250.396663 48.431761 
L 251.228257 47.401589 
L 252.059852 45.753878 
L 252.891447 44.93759 
L 254.554636 46.940367 
L 255.386231 46.568646 
L 257.881015 44.673578 
L 258.712609 43.761666 
L 259.544204 43.247288 
L 261.207393 42.509843 
L 262.038988 43.101615 
L 262.870582 43.18052 
L 263.702177 42.215467 
L 265.365366 41.226109 
L 266.196961 42.515881 
L 267.028556 43.535581 
L 267.86015 42.576606 
L 268.691745 42.576606 
L 269.523339 42.983266 
L 270.354934 42.24581 
L 271.186529 42.37782 
L 272.018123 42.323193 
L 272.849718 41.555393 
L 273.681313 41.676788 
L 275.344502 38.485517 
L 277.007691 39.749613 
L 277.007691 39.749613 
" clip-path="url(#p919d63571f)" style="fill: none; stroke-dasharray: 5.55,2.4; stroke-dashoffset: 0; stroke: #000000; stroke-width: 1.5"/>
   </g>
   <g id="line2d_17">
    <path d="M 277.839286 39.924125 
L 278.67088 39.277661 
L 279.502475 39.672203 
L 280.33407 39.59329 
L 281.165664 38.339832 
L 281.997259 38.364113 
L 282.828854 38.203252 
L 283.660448 38.509795 
L 284.492043 38.353485 
L 286.155232 37.286631 
L 286.986827 35.55349 
L 287.818421 36.081614 
L 288.650016 37.022568 
L 289.481611 36.45195 
L 290.313205 36.45195 
L 291.1448 35.617239 
L 291.976395 35.025354 
L 292.807989 35.177123 
L 294.471178 33.269356 
L 295.302773 33.706463 
L 296.134368 33.460586 
L 296.965962 32.891433 
L 297.797557 32.982499 
L 298.629152 31.513249 
L 299.460746 31.092824 
L 300.292341 31.680234 
L 301.123936 31.787997 
L 301.95553 32.052098 
L 302.787125 31.309886 
L 303.618719 30.872751 
L 304.450314 30.69668 
L 305.281909 31.156582 
L 306.945098 29.922564 
L 307.776693 27.354099 
L 308.608287 26.479791 
L 309.439882 28.723422 
L 310.271477 28.064629 
L 311.103071 28.16633 
L 311.934666 26.499514 
L 312.76626 26.133692 
L 313.597855 27.906766 
L 314.42945 27.354224 
L 315.261044 27.247965 
L 316.924234 29.022453 
L 318.587423 27.931882 
L 319.419018 27.945019 
L 320.250612 27.424049 
L 321.082207 24.046545 
L 321.913801 19.8 
L 322.745396 22.242416 
L 323.576991 26.467099 
L 325.24018 27.571578 
L 326.071775 28.520618 
L 326.903369 27.3269 
L 327.734964 27.081594 
L 328.566559 26.242417 
L 329.398153 24.907764 
L 330.229748 24.653935 
L 331.061342 24.667287 
L 331.892937 25.799171 
L 332.724532 24.905325 
L 333.556126 24.203366 
L 334.387721 25.592704 
L 335.219316 26.323799 
L 336.05091 23.898473 
L 336.882505 22.678515 
L 337.7141 24.990347 
L 338.545694 25.329181 
L 339.377289 25.044997 
L 340.208883 25.008562 
L 341.040478 25.222914 
L 341.872073 24.647868 
L 343.535262 24.008444 
L 344.366857 24.230202 
L 347.693235 26.447785 
L 348.52483 25.85016 
L 349.356424 24.454767 
L 350.188019 25.365599 
L 351.019614 25.660703 
L 351.851208 24.338175 
L 352.682803 23.685972 
L 353.514398 21.213175 
L 354.345992 20.529036 
L 355.177587 21.576347 
L 356.009181 22.385221 
L 356.840776 23.563922 
L 357.672371 22.564373 
L 358.503965 24.263485 
L 359.33556 23.617038 
L 360.167155 21.850521 
L 360.998749 23.446737 
L 361.830344 23.506248 
L 362.661939 23.773439 
L 363.493533 24.168145 
L 364.325128 25.052283 
L 365.156722 24.016944 
L 365.988317 23.581547 
L 367.651506 24.053987 
L 369.314696 23.948933 
L 370.14629 23.528716 
L 370.977885 23.650773 
L 371.80948 24.007228 
L 373.472669 23.033791 
L 374.304263 22.107679 
L 375.135858 25.369257 
L 376.799047 23.655631 
L 377.630642 24.121996 
L 378.462237 23.179544 
L 379.293831 23.520816 
L 380.125426 25.247806 
L 380.957021 26.369339 
L 381.788615 25.127582 
L 382.62021 25.166442 
L 383.451804 24.225229 
L 384.283399 23.841451 
L 385.114994 23.858454 
L 385.946588 24.064917 
L 386.778183 24.770529 
L 387.609778 25.279388 
L 388.441372 25.405678 
L 389.272967 27.221245 
L 390.104562 25.92304 
L 390.936156 25.244165 
L 391.767751 26.486535 
L 393.43094 27.118025 
L 395.094129 25.646146 
L 395.925724 26.731237 
L 396.757319 26.129495 
L 397.588913 26.867857 
L 398.420508 27.312926 
L 399.252102 25.77488 
L 400.083697 26.735489 
L 400.915292 27.090095 
L 401.746886 26.704514 
L 402.578481 25.626709 
L 403.410076 27.432552 
L 404.24167 27.310893 
L 405.073265 27.691216 
L 405.90486 27.585565 
L 406.736454 27.776826 
L 407.568049 29.141761 
L 408.399643 28.664525 
L 409.231238 29.354572 
L 410.062833 29.554328 
L 411.726022 30.281697 
L 412.557617 29.854259 
L 413.389211 28.146604 
L 414.220806 28.331486 
L 415.052401 30.166943 
L 415.883995 31.683879 
L 416.71559 31.575505 
L 417.547184 32.571179 
L 418.378779 30.836323 
L 420.041968 30.820537 
L 420.873563 31.460015 
L 422.536752 31.889695 
L 423.368347 33.028032 
L 424.199942 32.153792 
L 425.031536 32.681981 
L 425.863131 31.145962 
L 426.694725 33.55621 
L 427.52632 33.125169 
L 429.189509 35.322819 
L 434.179077 39.642477 
L 435.842266 37.996257 
L 436.673861 38.16683 
L 438.33705 39.170228 
L 439.168645 38.910427 
L 440.00024 38.846084 
L 440.831834 38.520722 
L 441.663429 39.856119 
L 442.495024 40.865565 
L 443.326618 40.63309 
L 443.326618 40.63309 
" clip-path="url(#p919d63571f)" style="fill: none; stroke: #000000; stroke-width: 1.5; stroke-linecap: square"/>
   </g>
   <g id="line2d_18">
    <path d="M 444.158213 40.512907 
L 445.821402 40.180277 
L 446.652997 41.39605 
L 448.316186 41.339006 
L 449.147781 40.917154 
L 449.979375 41.378453 
L 450.81097 42.379953 
L 451.642564 41.306823 
L 452.474159 41.637018 
L 453.305754 42.284662 
L 454.137348 42.495882 
L 454.968943 43.28795 
L 455.800538 43.675181 
L 456.632132 43.382028 
L 457.463727 43.542772 
L 463.284889 47.698195 
L 464.116484 46.480933 
L 464.948079 47.12241 
L 465.779673 48.649926 
L 469.937646 52.230716 
L 470.769241 52.72963 
L 471.600836 52.941703 
L 472.43243 53.38284 
L 473.264025 53.192005 
L 474.927214 52.182897 
L 475.758809 53.577007 
L 477.421998 55.030207 
L 478.253593 56.901124 
L 479.085187 57.048559 
L 479.916782 57.392573 
L 480.748377 57.446268 
L 481.579971 57.701696 
L 482.411566 58.295666 
L 483.243161 59.527258 
L 484.074755 60.529198 
L 484.90635 60.008064 
L 485.737945 59.917056 
L 486.569539 59.040091 
L 487.401134 59.907654 
L 488.232728 61.172569 
L 489.064323 61.661841 
L 489.895918 60.807661 
L 490.727512 60.97751 
L 491.559107 62.879988 
L 493.222296 63.415339 
L 494.053891 62.836917 
L 494.885485 63.951274 
L 495.71708 65.444151 
L 496.548675 64.548203 
L 497.380269 64.893056 
L 498.211864 66.143549 
L 499.043459 67.119235 
L 499.875053 67.155932 
L 501.538243 68.114603 
L 502.369837 68.524329 
L 503.201432 68.752783 
L 507.359405 72.560354 
L 508.191 72.126146 
L 509.022594 73.09561 
L 509.854189 71.397435 
L 510.685784 71.196081 
L 511.517378 73.646886 
L 512.348973 72.019702 
L 513.180567 74.968957 
L 514.012162 75.320103 
L 514.843757 77.175764 
L 515.675351 76.791521 
L 517.338541 78.193315 
L 518.170135 77.990172 
L 519.00173 78.156932 
L 519.833325 79.90452 
L 521.496514 80.559402 
L 522.328108 80.650356 
L 523.159703 82.813766 
L 523.991298 82.754911 
L 524.822892 83.879674 
L 526.486082 85.281438 
L 527.317676 86.30241 
L 528.149271 86.417603 
L 528.980866 85.911063 
L 529.81246 87.262415 
L 530.644055 87.711963 
L 531.475649 89.122966 
L 532.307244 89.150558 
L 533.138839 88.914133 
L 534.802028 84.402012 
L 535.633623 88.448678 
L 536.465217 90.967661 
L 537.296812 91.801139 
L 538.128407 92.811975 
L 538.960001 92.481619 
L 540.62319 95.646637 
L 544.781164 100.751055 
L 545.612758 102.04524 
L 546.444353 102.747918 
L 547.275947 102.945477 
L 548.107542 102.825178 
L 548.939137 104.957677 
L 549.770731 104.867991 
L 550.602326 104.343505 
L 551.433921 106.887666 
L 552.265515 107.024305 
L 553.09711 108.306768 
L 553.928705 108.781205 
L 554.760299 108.673956 
L 555.591894 108.026515 
L 556.423488 110.855507 
L 557.255083 110.75523 
L 558.086678 112.459722 
L 563.076246 117.231833 
L 563.90784 117.845273 
L 564.739435 117.089255 
L 565.571029 118.57765 
L 566.402624 118.932005 
L 567.234219 121.963417 
L 568.065813 120.784076 
L 568.897408 122.898323 
L 569.729003 122.652404 
L 570.560597 124.726676 
L 572.223787 125.110263 
L 573.055381 125.090713 
L 573.886976 123.169069 
L 574.71857 128.7047 
L 575.550165 130.848485 
L 576.38176 129.75844 
L 577.213354 130.285298 
L 581.371328 134.832474 
L 582.202922 136.596736 
L 583.866111 137.554003 
L 584.697706 137.842209 
L 586.360895 141.250815 
L 587.19249 140.294244 
L 588.024085 139.918887 
L 589.687274 143.549786 
L 590.518869 143.25012 
L 591.350463 142.531234 
L 592.182058 142.995865 
L 592.597855 143.460495 
L 592.597855 143.460495 
" clip-path="url(#p919d63571f)" style="fill: none; stroke-dasharray: 5.55,2.4; stroke-dashoffset: 0; stroke: #000000; stroke-width: 1.5"/>
   </g>
   <g id="line2d_19">
    <path d="M 277.839286 39.555622 
L 284.492043 37.522934 
L 291.1448 35.243175 
L 306.113503 29.987158 
L 311.103071 28.570486 
L 315.261044 27.618663 
L 320.250612 26.739846 
L 326.071775 25.995169 
L 332.724532 25.379691 
L 342.703667 24.720542 
L 360.167155 23.645046 
L 365.988317 23.720006 
L 373.472669 24.047036 
L 380.125426 24.554847 
L 387.609778 25.391876 
L 397.588913 26.741719 
L 403.410076 27.727126 
L 409.231238 28.961724 
L 415.052401 30.427448 
L 420.041968 31.904698 
L 424.199942 33.344729 
L 431.684293 36.246377 
L 436.673861 38.05764 
L 441.663429 39.606297 
L 443.326618 40.08139 
L 443.326618 40.08139 
" clip-path="url(#p919d63571f)" style="fill: none; stroke: #ff7f0e; stroke-width: 1.5; stroke-linecap: square"/>
   </g>
   <g id="line2d_20">
    <defs>
     <path id="m3743c7f6ee" d="M 0 3 
C 0.795609 3 1.55874 2.683901 2.12132 2.12132 
C 2.683901 1.55874 3 0.795609 3 0 
C 3 -0.795609 2.683901 -1.55874 2.12132 -2.12132 
C 1.55874 -2.683901 0.795609 -3 0 -3 
C -0.795609 -3 -1.55874 -2.683901 -2.12132 -2.12132 
C -2.683901 -1.55874 -3 -0.795609 -3 0 
C -3 0.795609 -2.683901 1.55874 -2.12132 2.12132 
C -1.55874 2.683901 -0.795609 3 0 3 
z
" style="stroke: #2ca02c"/>
    </defs>
    <g clip-path="url(#p919d63571f)">
     <use xlink:href="#m3743c7f6ee" x="360.998749" y="23.641057" style="fill: #2ca02c; stroke: #2ca02c"/>
    </g>
   </g>
   <g id="patch_3">
    <path d="M 65.366857 284.4 
L 65.366857 7.2 
" style="fill: none; stroke: #000000; stroke-width: 1.5; stroke-linejoin: miter; stroke-linecap: square"/>
   </g>
   <g id="patch_4">
    <path d="M 65.366857 284.4 
L 623.366857 284.4 
" style="fill: none; stroke: #000000; stroke-width: 1.5; stroke-linejoin: miter; stroke-linecap: square"/>
   </g>
  </g>
 </g>
 <defs>
  <clipPath id="p919d63571f">
   <rect x="65.366857" y="7.2" width="558" height="277.2"/>
  </clipPath>
 </defs>
</svg>
