<?xml version="1.0" encoding="utf-8" standalone="no"?>
<!DOCTYPE svg PUBLIC "-//W3C//DTD SVG 1.1//EN"
  "http://www.w3.org/Graphics/SVG/1.1/DTD/svg11.dtd">
<svg xmlns:xlink="http://www.w3.org/1999/xlink" width="630.566857pt" height="349.615234pt" viewBox="0 0 630.566857 349.615234" xmlns="http://www.w3.org/2000/svg" version="1.1">
 <metadata>
  <rdf:RDF xmlns:dc="http://purl.org/dc/elements/1.1/" xmlns:cc="http://creativecommons.org/ns#" xmlns:rdf="http://www.w3.org/1999/02/22-rdf-syntax-ns#">
   <cc:Work>
    <dc:type rdf:resource="http://purl.org/dc/dcmitype/StillImage"/>
    <dc:date>2024-11-30T18:39:53.618974</dc:date>
    <dc:format>image/svg+xml</dc:format>
    <dc:creator>
     <cc:Agent>
      <dc:title>Matplotlib v3.9.1, https://matplotlib.org/</dc:title>
     </cc:Agent>
    </dc:creator>
   </cc:Work>
  </rdf:RDF>
 </metadata>
 <defs>
  <style type="text/css">*{stroke-linejoin: round; stroke-linecap: butt}</style>
 </defs>
 <g id="figure_1">
  <g id="patch_1">
   <path d="M 0 349.615234 
L 630.566857 349.615234 
L 630.566857 0 
L 0 0 
z
" style="fill: #ffffff"/>
  </g>
  <g id="axes_1">
   <g id="patch_2">
    <path d="M 65.366857 284.4 
L 623.366857 284.4 
L 623.366857 7.2 
L 65.366857 7.2 
z
" style="fill: #ffffff"/>
   </g>
   <g id="matplotlib.axis_1">
    <g id="xtick_1">
     <g id="line2d_1">
      <defs>
       <path id="m20501ac5bc" d="M 0 0 
L 0 8 
" style="stroke: #000000; stroke-width: 1.5"/>
      </defs>
      <g>
       <use xlink:href="#m20501ac5bc" x="100.677017" y="284.4" style="stroke: #000000; stroke-width: 1.5"/>
      </g>
     </g>
     <g id="text_1">
      <!-- $\mathdefault{0}$ -->
      <g transform="translate(96.107969 314.649892) scale(0.2 -0.2)">
       <defs>
        <path id="CMR17-30" d="M 2688 2038 
C 2688 2430 2682 3099 2413 3613 
C 2176 4063 1798 4224 1466 4224 
C 1158 4224 768 4082 525 3620 
C 269 3137 243 2539 243 2038 
C 243 1671 250 1112 448 623 
C 723 -39 1216 -128 1466 -128 
C 1760 -128 2208 -7 2470 604 
C 2662 1048 2688 1568 2688 2038 
z
M 1466 -26 
C 1056 -26 813 328 723 816 
C 653 1196 653 1749 653 2109 
C 653 2604 653 3015 736 3407 
C 858 3954 1216 4121 1466 4121 
C 1728 4121 2067 3947 2189 3420 
C 2272 3054 2278 2623 2278 2109 
C 2278 1691 2278 1176 2202 797 
C 2067 96 1690 -26 1466 -26 
z
" transform="scale(0.015625)"/>
       </defs>
       <use xlink:href="#CMR17-30" transform="scale(0.996264)"/>
      </g>
     </g>
    </g>
    <g id="xtick_2">
     <g id="line2d_2">
      <g>
       <use xlink:href="#m20501ac5bc" x="200.142258" y="284.4" style="stroke: #000000; stroke-width: 1.5"/>
      </g>
     </g>
     <g id="text_2">
      <!-- $\mathdefault{1}$ -->
      <g transform="translate(195.57321 314.649892) scale(0.2 -0.2)">
       <defs>
        <path id="CMR17-31" d="M 1702 4083 
C 1702 4217 1696 4224 1606 4224 
C 1357 3927 979 3833 621 3820 
C 602 3820 570 3820 563 3808 
C 557 3795 557 3782 557 3648 
C 755 3648 1088 3686 1344 3839 
L 1344 467 
C 1344 243 1331 166 781 166 
L 589 166 
L 589 0 
C 896 6 1216 12 1523 12 
C 1830 12 2150 6 2458 0 
L 2458 166 
L 2266 166 
C 1715 166 1702 236 1702 467 
L 1702 4083 
z
" transform="scale(0.015625)"/>
       </defs>
       <use xlink:href="#CMR17-31" transform="scale(0.996264)"/>
      </g>
     </g>
    </g>
    <g id="xtick_3">
     <g id="line2d_3">
      <g>
       <use xlink:href="#m20501ac5bc" x="299.607498" y="284.4" style="stroke: #000000; stroke-width: 1.5"/>
      </g>
     </g>
     <g id="text_3">
      <!-- $\mathdefault{2}$ -->
      <g transform="translate(295.038451 314.649892) scale(0.2 -0.2)">
       <defs>
        <path id="CMR17-32" d="M 2669 990 
L 2554 990 
C 2490 537 2438 460 2413 422 
C 2381 371 1920 371 1830 371 
L 602 371 
C 832 620 1280 1073 1824 1596 
C 2214 1966 2669 2400 2669 3033 
C 2669 3788 2067 4224 1395 4224 
C 691 4224 262 3603 262 3027 
C 262 2777 448 2745 525 2745 
C 589 2745 781 2783 781 3007 
C 781 3206 614 3264 525 3264 
C 486 3264 448 3257 422 3244 
C 544 3788 915 4057 1306 4057 
C 1862 4057 2227 3616 2227 3033 
C 2227 2477 1901 1998 1536 1583 
L 262 147 
L 262 0 
L 2515 0 
L 2669 990 
z
" transform="scale(0.015625)"/>
       </defs>
       <use xlink:href="#CMR17-32" transform="scale(0.996264)"/>
      </g>
     </g>
    </g>
    <g id="xtick_4">
     <g id="line2d_4">
      <g>
       <use xlink:href="#m20501ac5bc" x="399.072739" y="284.4" style="stroke: #000000; stroke-width: 1.5"/>
      </g>
     </g>
     <g id="text_4">
      <!-- $\mathdefault{3}$ -->
      <g transform="translate(394.503691 314.649892) scale(0.2 -0.2)">
       <defs>
        <path id="CMR17-33" d="M 1414 2176 
C 1984 2176 2234 1673 2234 1094 
C 2234 322 1824 25 1453 25 
C 1114 25 563 193 390 691 
C 422 678 454 678 486 678 
C 640 678 755 780 755 947 
C 755 1132 614 1216 486 1216 
C 378 1216 211 1164 211 927 
C 211 335 787 -128 1466 -128 
C 2176 -128 2720 432 2720 1087 
C 2720 1718 2208 2176 1600 2246 
C 2086 2347 2554 2776 2554 3353 
C 2554 3856 2048 4224 1472 4224 
C 890 4224 378 3862 378 3347 
C 378 3123 544 3084 627 3084 
C 762 3084 877 3167 877 3334 
C 877 3500 762 3584 627 3584 
C 602 3584 570 3584 544 3571 
C 730 3999 1235 4076 1459 4076 
C 1683 4076 2106 3966 2106 3347 
C 2106 3167 2080 2851 1862 2574 
C 1670 2329 1453 2316 1242 2297 
C 1210 2297 1062 2284 1037 2284 
C 992 2278 966 2272 966 2227 
C 966 2182 973 2176 1101 2176 
L 1414 2176 
z
" transform="scale(0.015625)"/>
       </defs>
       <use xlink:href="#CMR17-33" transform="scale(0.996264)"/>
      </g>
     </g>
    </g>
    <g id="xtick_5">
     <g id="line2d_5">
      <g>
       <use xlink:href="#m20501ac5bc" x="498.53798" y="284.4" style="stroke: #000000; stroke-width: 1.5"/>
      </g>
     </g>
     <g id="text_5">
      <!-- $\mathdefault{4}$ -->
      <g transform="translate(493.968932 314.649892) scale(0.2 -0.2)">
       <defs>
        <path id="CMR17-34" d="M 2150 4147 
C 2150 4281 2144 4288 2029 4288 
L 128 1254 
L 128 1088 
L 1779 1088 
L 1779 460 
C 1779 230 1766 166 1318 166 
L 1197 166 
L 1197 0 
C 1402 12 1747 12 1965 12 
C 2182 12 2528 12 2733 0 
L 2733 166 
L 2611 166 
C 2163 166 2150 230 2150 460 
L 2150 1088 
L 2803 1088 
L 2803 1254 
L 2150 1254 
L 2150 4147 
z
M 1798 3723 
L 1798 1254 
L 256 1254 
L 1798 3723 
z
" transform="scale(0.015625)"/>
       </defs>
       <use xlink:href="#CMR17-34" transform="scale(0.996264)"/>
      </g>
     </g>
    </g>
    <g id="xtick_6">
     <g id="line2d_6">
      <g>
       <use xlink:href="#m20501ac5bc" x="598.00322" y="284.4" style="stroke: #000000; stroke-width: 1.5"/>
      </g>
     </g>
     <g id="text_6">
      <!-- $\mathdefault{5}$ -->
      <g transform="translate(593.434173 314.649892) scale(0.2 -0.2)">
       <defs>
        <path id="CMR17-35" d="M 730 3750 
C 794 3724 1056 3641 1325 3641 
C 1920 3641 2246 3961 2432 4140 
C 2432 4191 2432 4224 2394 4224 
C 2387 4224 2374 4224 2323 4198 
C 2099 4102 1837 4032 1517 4032 
C 1325 4032 1037 4055 723 4191 
C 653 4224 640 4224 634 4224 
C 602 4224 595 4217 595 4090 
L 595 2231 
C 595 2113 595 2080 659 2080 
C 691 2080 704 2093 736 2139 
C 941 2435 1222 2560 1542 2560 
C 1766 2560 2246 2415 2246 1293 
C 2246 1087 2246 716 2054 422 
C 1894 159 1645 25 1370 25 
C 947 25 518 319 403 812 
C 429 806 480 793 506 793 
C 589 793 749 838 749 1036 
C 749 1209 627 1280 506 1280 
C 358 1280 262 1190 262 1011 
C 262 454 704 -128 1382 -128 
C 2042 -128 2669 441 2669 1267 
C 2669 2054 2170 2662 1549 2662 
C 1222 2662 947 2540 730 2304 
L 730 3750 
z
" transform="scale(0.015625)"/>
       </defs>
       <use xlink:href="#CMR17-35" transform="scale(0.996264)"/>
      </g>
     </g>
    </g>
    <g id="text_7">
     <!-- $t\:\:[\text{с}]$ -->
     <g transform="translate(327.279331 337.45059) scale(0.2 -0.2)">
      <defs>
       <path id="CMMI12-74" d="M 1286 2566 
L 1875 2566 
C 1997 2566 2061 2566 2061 2681 
C 2061 2752 2022 2752 1894 2752 
L 1331 2752 
L 1568 3664 
C 1594 3752 1594 3764 1594 3808 
C 1594 3910 1510 3968 1427 3968 
C 1376 3968 1229 3948 1178 3746 
L 928 2752 
L 326 2752 
C 198 2752 141 2752 141 2630 
C 141 2566 186 2566 307 2566 
L 877 2566 
L 454 881 
C 403 657 384 593 384 510 
C 384 210 595 -64 954 -64 
C 1600 -64 1946 868 1946 913 
C 1946 951 1920 970 1882 970 
C 1869 970 1843 970 1830 944 
C 1824 938 1818 932 1773 830 
C 1638 510 1344 64 973 64 
C 781 64 768 223 768 364 
C 768 370 768 491 787 568 
L 1286 2566 
z
" transform="scale(0.015625)"/>
       <path id="CMR17-5b" d="M 1504 -1600 
L 1504 -1376 
L 902 -1376 
L 902 4575 
L 1504 4575 
L 1504 4800 
L 678 4800 
L 678 -1600 
L 1504 -1600 
z
" transform="scale(0.015625)"/>
       <path id="SFSS3583-f1" d="M 2362 564 
C 2086 381 1869 198 1472 198 
C 838 198 538 800 538 1324 
C 538 1821 800 2456 1389 2489 
L 1440 2489 
C 1792 2489 2022 2410 2304 2253 
C 2317 2319 2342 2404 2342 2469 
C 2342 2681 1568 2752 1459 2752 
C 736 2752 346 2044 314 1409 
L 314 1337 
C 314 689 704 -64 1459 -64 
C 1773 -64 2061 51 2304 237 
C 2342 276 2374 296 2374 348 
L 2374 394 
C 2368 453 2362 506 2362 564 
z
" transform="scale(0.015625)"/>
       <path id="CMR17-5d" d="M 915 4800 
L 90 4800 
L 90 4575 
L 691 4575 
L 691 -1376 
L 90 -1376 
L 90 -1600 
L 915 -1600 
L 915 4800 
z
" transform="scale(0.015625)"/>
      </defs>
      <use xlink:href="#CMMI12-74" transform="scale(0.996264)"/>
      <use xlink:href="#CMR17-5b" transform="translate(79.504744 0) scale(0.996264)"/>
      <use xlink:href="#SFSS3583-f1" transform="translate(104.375803 0) scale(0.996264)"/>
      <use xlink:href="#CMR17-5d" transform="translate(144.056057 0) scale(0.996264)"/>
     </g>
    </g>
   </g>
   <g id="matplotlib.axis_2">
    <g id="ytick_1">
     <g id="line2d_7">
      <defs>
       <path id="m7a21c552f6" d="M 0 0 
L -8 0 
" style="stroke: #000000; stroke-width: 1.5"/>
      </defs>
      <g>
       <use xlink:href="#m7a21c552f6" x="65.366857" y="271.720055" style="stroke: #000000; stroke-width: 1.5"/>
      </g>
     </g>
     <g id="text_8">
      <!-- $\mathdefault{0}$ -->
      <g transform="translate(40.228761 278.845002) scale(0.2 -0.2)">
       <use xlink:href="#CMR17-30" transform="scale(0.996264)"/>
      </g>
     </g>
    </g>
    <g id="ytick_2">
     <g id="line2d_8">
      <g>
       <use xlink:href="#m7a21c552f6" x="65.366857" y="201.805484" style="stroke: #000000; stroke-width: 1.5"/>
      </g>
     </g>
     <g id="text_9">
      <!-- $\mathdefault{10}$ -->
      <g transform="translate(31.090666 208.93043) scale(0.2 -0.2)">
       <use xlink:href="#CMR17-31" transform="scale(0.996264)"/>
       <use xlink:href="#CMR17-30" transform="translate(45.690477 0) scale(0.996264)"/>
      </g>
     </g>
    </g>
    <g id="ytick_3">
     <g id="line2d_9">
      <g>
       <use xlink:href="#m7a21c552f6" x="65.366857" y="131.890913" style="stroke: #000000; stroke-width: 1.5"/>
      </g>
     </g>
     <g id="text_10">
      <!-- $\mathdefault{20}$ -->
      <g transform="translate(31.090666 139.015859) scale(0.2 -0.2)">
       <use xlink:href="#CMR17-32" transform="scale(0.996264)"/>
       <use xlink:href="#CMR17-30" transform="translate(45.690477 0) scale(0.996264)"/>
      </g>
     </g>
    </g>
    <g id="ytick_4">
     <g id="line2d_10">
      <g>
       <use xlink:href="#m7a21c552f6" x="65.366857" y="61.976341" style="stroke: #000000; stroke-width: 1.5"/>
      </g>
     </g>
     <g id="text_11">
      <!-- $\mathdefault{30}$ -->
      <g transform="translate(31.090666 69.101288) scale(0.2 -0.2)">
       <use xlink:href="#CMR17-33" transform="scale(0.996264)"/>
       <use xlink:href="#CMR17-30" transform="translate(45.690477 0) scale(0.996264)"/>
      </g>
     </g>
    </g>
    <g id="text_12">
     <!-- $h\:\:[\text{м}]$ -->
     <g transform="translate(22.126022 167.061798) rotate(-90) scale(0.2 -0.2)">
      <defs>
       <path id="CMMI12-68" d="M 1798 4255 
C 1805 4281 1818 4319 1818 4351 
C 1818 4416 1754 4416 1741 4416 
C 1734 4416 1421 4390 1389 4383 
C 1280 4377 1184 4364 1069 4358 
C 909 4345 864 4339 864 4223 
C 864 4159 915 4159 1005 4159 
C 1318 4159 1325 4103 1325 4040 
C 1325 4002 1312 3951 1306 3932 
L 378 249 
C 352 153 352 140 352 102 
C 352 -39 461 -64 525 -64 
C 634 -64 717 19 749 89 
L 1037 1245 
C 1069 1385 1107 1519 1139 1660 
C 1210 1928 1210 1934 1331 2119 
C 1453 2305 1741 2687 2234 2687 
C 2490 2687 2579 2496 2579 2241 
C 2579 1883 2330 1187 2189 804 
C 2131 651 2099 568 2099 453 
C 2099 166 2298 -64 2605 -64 
C 3200 -64 3424 874 3424 913 
C 3424 945 3398 970 3360 970 
C 3302 970 3296 951 3264 842 
C 3117 332 2880 64 2624 64 
C 2560 64 2458 70 2458 274 
C 2458 440 2534 645 2560 715 
C 2675 1021 2963 1775 2963 2145 
C 2963 2528 2739 2816 2253 2816 
C 1888 2816 1568 2643 1306 2311 
L 1798 4255 
z
" transform="scale(0.015625)"/>
       <path id="SFSS3583-ec" d="M 538 2688 
L 538 0 
L 819 0 
L 826 2352 
C 877 2146 992 1927 1082 1721 
L 1715 174 
C 1734 135 1747 51 1798 38 
L 1990 38 
C 2080 38 2176 367 2240 528 
C 2406 934 2573 1334 2739 1740 
L 2906 2133 
C 2938 2211 2976 2288 2995 2365 
L 3002 0 
L 3283 0 
L 3283 2688 
L 2874 2688 
L 1907 360 
L 934 2675 
L 819 2688 
L 538 2688 
z
" transform="scale(0.015625)"/>
      </defs>
      <use xlink:href="#CMMI12-68" transform="scale(0.996264)"/>
      <use xlink:href="#CMR17-5b" transform="translate(100.433038 0) scale(0.996264)"/>
      <use xlink:href="#SFSS3583-ec" transform="translate(125.304096 0) scale(0.996264)"/>
      <use xlink:href="#CMR17-5d" transform="translate(184.861913 0) scale(0.996264)"/>
     </g>
    </g>
   </g>
   <g id="line2d_11">
    <path d="M 100.677017 271.720055 
L 103.306117 271.610409 
L 106.07733 271.273569 
L 108.990657 270.695505 
L 112.046097 269.860556 
L 115.243651 268.751491 
L 118.512262 267.381791 
L 121.922986 265.708828 
L 125.404767 263.752672 
L 129.028661 261.456387 
L 132.723612 258.845506 
L 136.48962 255.905485 
L 140.255628 252.682202 
L 144.092692 249.102205 
L 147.929757 245.215496 
L 151.766821 241.010463 
L 155.603886 236.471811 
L 159.369894 231.673356 
L 163.135902 226.509403 
L 166.759796 221.165489 
L 170.312633 215.533338 
L 183.600246 193.883427 
L 191.061205 182.294716 
L 198.451107 171.222815 
L 205.769952 160.654461 
L 213.017741 150.576654 
L 220.194473 140.976645 
L 227.300148 131.841926 
L 234.334766 123.160225 
L 241.298328 114.919498 
L 248.190833 107.107925 
L 255.012281 99.7139 
L 261.762672 92.726029 
L 268.37095 86.201579 
L 274.979228 79.98929 
L 281.516449 74.150221 
L 287.982614 68.673761 
L 294.377721 63.549486 
L 300.701772 58.767148 
L 306.954766 54.316678 
L 313.136704 50.188173 
L 319.247584 46.371898 
L 325.287408 42.858281 
L 331.327232 39.601023 
L 337.295999 36.633412 
L 343.19371 33.946259 
L 349.09142 31.50253 
L 354.918074 29.327059 
L 360.744727 27.388726 
L 366.500324 25.706628 
L 372.255921 24.255479 
L 378.011518 23.035059 
L 383.696058 22.055965 
L 389.380598 21.30151 
L 395.065138 20.771481 
L 400.749678 20.465665 
L 406.434218 20.383848 
L 412.118759 20.525815 
L 417.803299 20.891351 
L 423.487839 21.480242 
L 429.172379 22.292272 
L 434.856919 23.327224 
L 440.612516 24.602011 
L 446.368113 26.104882 
L 452.194766 27.858401 
L 458.02142 29.845204 
L 463.91913 32.093566 
L 469.816841 34.580452 
L 475.785608 37.339902 
L 481.825432 40.380376 
L 487.865256 43.670227 
L 493.976136 47.252249 
L 500.158074 51.134846 
L 506.411068 55.326578 
L 512.735119 59.836065 
L 519.130226 64.671981 
L 525.596391 69.843043 
L 532.133612 75.358014 
L 538.74189 81.225699 
L 545.421224 87.454934 
L 552.171616 94.054592 
L 558.993064 101.033573 
L 565.956625 108.478399 
L 572.991244 116.327029 
L 580.096919 124.588492 
L 587.344708 133.359501 
L 594.663553 142.568241 
L 598.00322 146.887413 
L 598.00322 146.887413 
" clip-path="url(#p016a75d837)" style="fill: none; stroke: #1f77b4; stroke-width: 1.5; stroke-linecap: square"/>
   </g>
   <g id="line2d_12">
    <path d="M 90.730493 271.720055 
L 95.703755 271.78364 
L 100.677017 271.728902 
L 103.660974 271.64895 
L 105.650279 271.267755 
L 108.634236 270.440639 
L 113.607498 268.459992 
L 115.596803 267.414411 
L 119.575413 264.947802 
L 121.564718 263.632857 
L 127.532632 258.697339 
L 133.500546 252.832363 
L 140.463113 245.114099 
L 142.452418 242.450753 
L 143.44707 241.326563 
L 149.414985 232.268004 
L 151.40429 229.549476 
L 153.393595 225.795988 
L 157.372204 218.246896 
L 159.361509 214.881855 
L 163.340119 208.165698 
L 168.313381 200.221333 
L 179.254557 184.532535 
L 183.233167 178.694107 
L 190.195734 168.117234 
L 196.163648 159.220565 
L 198.152953 156.261537 
L 205.11552 147.563432 
L 207.104825 145.365458 
L 213.072739 137.87415 
L 213.072739 137.87415 
" clip-path="url(#p016a75d837)" style="fill: none; stroke: #ff0000; stroke-width: 1.5; stroke-linecap: square"/>
   </g>
   <g id="line2d_13">
    <path d="M 90.730493 271.050437 
L 91.725145 270.825783 
L 92.719798 271.361497 
L 93.71445 270.925145 
L 94.709103 270.765296 
L 95.703755 271.389579 
L 96.698407 271.8 
L 98.687712 271.013715 
L 100.677017 270.925149 
L 101.671669 269.888252 
L 102.666322 268.386924 
L 103.660974 268.860013 
L 104.655627 268.170887 
L 105.650279 266.31953 
L 106.644931 264.792159 
L 108.634236 260.633265 
L 109.628889 259.909486 
L 110.623541 259.473045 
L 111.618193 256.530201 
L 112.612846 254.023774 
L 113.607498 252.647314 
L 114.602151 250.672263 
L 115.596803 248.418352 
L 116.591456 246.979113 
L 117.586108 245.851008 
L 118.58076 244.221508 
L 119.575413 241.718767 
L 125.543327 218.604571 
L 127.532632 210.927172 
L 128.527284 210.512353 
L 129.521937 209.140442 
L 130.516589 202.363366 
L 132.505894 190.748724 
L 133.500546 184.566623 
L 134.495199 183.33779 
L 135.489851 179.529762 
L 137.479156 167.063647 
L 138.473808 157.618206 
L 140.463113 142.859176 
L 141.457766 140.593617 
L 142.452418 135.128249 
L 143.44707 127.539997 
L 144.441723 121.752892 
L 145.436375 114.61857 
L 146.431028 105.472756 
L 147.42568 99.950352 
L 148.420333 99.046378 
L 149.414985 94.923968 
L 150.409637 89.978628 
L 151.40429 85.986505 
L 153.393595 76.545532 
L 154.388247 75.691466 
L 155.382899 76.596715 
L 157.372204 70.012485 
L 158.366857 70.012498 
L 159.361509 67.45073 
L 160.356161 61.724909 
L 161.350814 60.462995 
L 162.345466 61.292168 
L 163.340119 60.590492 
L 164.334771 60.321617 
L 165.329423 60.311209 
L 166.324076 59.051804 
L 167.318728 58.147609 
L 173.286643 53.727528 
L 174.281295 53.885534 
L 175.275947 52.927862 
L 176.2706 53.703367 
L 177.265252 53.108294 
L 179.254557 49.638346 
L 181.243862 50.0322 
L 182.238514 50.0322 
L 183.233167 50.462482 
L 184.227819 50.771311 
L 185.222472 49.974943 
L 186.217124 49.804913 
L 187.211776 45.914823 
L 189.201081 49.327766 
L 190.195734 50.572649 
L 191.190386 47.677713 
L 192.185038 49.487387 
L 193.179691 50.382672 
L 194.174343 48.30322 
L 195.168996 47.767959 
L 196.163648 47.497285 
L 197.1583 46.825799 
L 198.152953 47.882472 
L 199.147605 47.79572 
L 200.142258 48.357884 
L 202.131562 45.204309 
L 203.126215 45.998141 
L 204.120867 47.168482 
L 205.11552 45.888825 
L 206.110172 45.293672 
L 207.104825 45.485407 
L 208.099477 44.762708 
L 209.094129 44.566634 
L 210.088782 44.663804 
L 211.083434 44.167539 
L 212.078087 44.0374 
L 214.067391 43.254533 
L 220.035306 40.644975 
L 221.029958 40.644975 
L 222.024611 38.90964 
L 223.019263 40.232838 
L 224.013915 42.905169 
L 225.008568 38.276228 
L 226.00322 39.100529 
L 226.997873 40.610269 
L 227.992525 38.857579 
L 229.98183 37.699211 
L 230.976482 38.345644 
L 231.971135 38.38469 
L 232.965787 36.840181 
L 233.960439 36.840181 
L 234.955092 34.640482 
L 235.949744 38.007243 
L 236.944397 35.262095 
L 237.939049 35.573304 
L 238.933702 34.716843 
L 239.928354 35.875707 
L 240.923006 33.872081 
L 241.917659 33.633885 
L 242.912311 34.485154 
L 243.906964 32.572595 
L 244.901616 33.333637 
L 245.896268 33.384402 
L 246.890921 33.780103 
L 247.885573 32.126122 
L 248.880226 31.152458 
L 249.874878 32.127425 
L 250.86953 31.968187 
L 251.864183 33.667291 
L 252.858835 32.906693 
L 253.853488 31.004494 
L 254.84814 31.99205 
L 255.842792 32.123955 
L 256.837445 30.194826 
L 257.832097 29.738355 
L 258.82675 30.586213 
L 259.821402 30.490629 
L 265.789316 29.149099 
L 266.783969 29.148231 
L 267.778621 29.518795 
L 268.773274 28.742946 
L 269.767926 27.045422 
L 269.767926 27.045422 
" clip-path="url(#p016a75d837)" style="fill: none; stroke-dasharray: 5.55,2.4; stroke-dashoffset: 0; stroke: #000000; stroke-width: 1.5"/>
   </g>
   <g id="line2d_14">
    <path d="M 270.762579 26.344188 
L 272.751883 29.107441 
L 273.746536 27.965347 
L 274.741188 26.462533 
L 275.735841 26.25306 
L 276.730493 27.094894 
L 277.725145 27.724097 
L 278.719798 27.724097 
L 279.71445 29.129989 
L 280.709103 28.991131 
L 281.703755 27.557034 
L 282.698407 27.782677 
L 283.69306 27.242431 
L 284.687712 27.155645 
L 285.682365 28.374982 
L 286.677017 27.619936 
L 287.671669 26.454842 
L 288.666322 27.637303 
L 289.660974 28.424886 
L 290.655627 27.893327 
L 291.650279 26.647938 
L 292.644931 26.786795 
L 293.639584 28.374982 
L 294.634236 29.017188 
L 295.628889 29.205942 
L 296.623541 28.878332 
L 297.618193 27.292325 
L 298.612846 26.161933 
L 299.607498 27.74794 
L 300.602151 28.802396 
L 301.596803 29.242817 
L 302.591456 28.8653 
L 303.586108 27.806542 
L 307.564718 29.869073 
L 311.543327 31.893986 
L 313.532632 27.899399 
L 314.527284 26.920889 
L 315.521937 26.358507 
L 316.516589 25.60041 
L 317.511242 25.33744 
L 319.500546 27.976641 
L 320.495199 26.351117 
L 321.489851 25.819987 
L 322.484504 26.254796 
L 323.479156 26.387582 
L 324.473808 25.172534 
L 325.468461 25.818246 
L 326.463113 25.084876 
L 327.457766 25.261063 
L 328.452418 25.563092 
L 329.44707 23.953122 
L 330.441723 24.848804 
L 331.436375 25.2155 
L 332.431028 25.205954 
L 333.42568 24.657873 
L 334.420333 23.980904 
L 335.414985 24.293353 
L 336.409637 23.769131 
L 337.40429 23.454078 
L 338.398942 24.328935 
L 340.388247 23.493135 
L 341.382899 22.85998 
L 342.377552 22.015041 
L 343.372204 20.794259 
L 344.366857 20.381544 
L 345.361509 23.218839 
L 346.356161 22.82482 
L 347.350814 23.000583 
L 348.345466 25.221563 
L 349.340119 23.827265 
L 350.334771 23.418492 
L 351.329423 23.440393 
L 359.286643 21.188752 
L 360.281295 22.434245 
L 361.275947 22.232443 
L 362.2706 21.225635 
L 363.265252 22.106605 
L 364.259905 22.426664 
L 366.24921 21.850566 
L 367.243862 21.338474 
L 368.238514 22.206412 
L 369.233167 22.718504 
L 370.227819 20.659276 
L 371.222472 20.129825 
L 372.217124 21.193091 
L 373.211776 21.379702 
L 374.206429 21.844051 
L 375.201081 22.772748 
L 376.195734 23.247946 
L 378.185038 23.291342 
L 379.179691 22.359375 
L 380.174343 20.473742 
L 381.168996 20.472673 
L 382.163648 22.453778 
L 383.1583 23.083038 
L 384.152953 23.271811 
L 385.147605 21.83534 
L 386.142258 19.8 
L 387.13691 21.423076 
L 388.131562 23.269644 
L 390.120867 22.165196 
L 391.11552 22.9203 
L 392.110172 22.935489 
L 393.104825 22.442938 
L 394.099477 22.117459 
L 395.094129 22.453783 
L 396.088782 23.271814 
L 398.078087 23.658372 
L 405.040653 24.625762 
L 406.035306 21.691264 
L 407.029958 22.490224 
L 408.024611 22.882547 
L 409.019263 24.301155 
L 410.013915 24.075504 
L 411.008568 22.021107 
L 412.00322 21.310266 
L 412.997873 24.159664 
L 413.992525 24.582758 
L 414.987177 23.17894 
L 415.98183 23.041811 
L 416.976482 23.671058 
L 417.971135 24.433085 
L 418.965787 24.880926 
L 419.960439 24.929528 
L 420.955092 25.382569 
L 421.949744 25.684596 
L 422.944397 25.273215 
L 423.939049 26.358063 
L 424.933702 26.092494 
L 425.928354 25.311403 
L 426.923006 25.280159 
L 427.917659 26.26694 
L 428.912311 25.55093 
L 429.906964 25.487581 
L 430.901616 25.835609 
L 432.890921 25.944962 
L 433.885573 27.600845 
L 434.880226 29.652435 
L 435.874878 29.378202 
L 436.86953 28.774193 
L 437.864183 29.029337 
L 439.853488 27.897668 
L 440.84814 28.121573 
L 441.842792 29.057105 
L 442.837445 29.32093 
L 443.832097 29.280341 
L 449.800012 30.632208 
L 450.794664 31.068715 
L 451.789316 31.292607 
L 452.783969 30.226505 
L 453.778621 30.55844 
L 454.773274 32.591257 
L 455.767926 32.540492 
L 456.762579 32.340031 
L 457.757231 30.786673 
L 458.751883 33.112356 
L 459.746536 33.653843 
L 460.741188 33.010718 
L 464.719798 34.383194 
L 465.71445 34.169724 
L 466.709103 35.880047 
L 467.703755 35.985476 
L 468.698407 35.810192 
L 468.698407 35.810192 
" clip-path="url(#p016a75d837)" style="fill: none; stroke: #000000; stroke-width: 1.5; stroke-linecap: square"/>
   </g>
   <g id="line2d_15">
    <path d="M 469.69306 34.232639 
L 470.687712 34.428314 
L 471.682365 36.244492 
L 472.677017 36.509142 
L 473.671669 34.822263 
L 474.666322 38.015042 
L 475.660974 34.95634 
L 476.655627 36.182448 
L 477.650279 35.627938 
L 478.644931 41.19029 
L 479.639584 39.351721 
L 480.634236 39.074499 
L 481.628889 39.05541 
L 482.623541 38.845431 
L 483.618193 38.459311 
L 484.612846 38.320476 
L 485.607498 40.326109 
L 486.602151 38.979044 
L 487.596803 42.086564 
L 488.591456 41.615162 
L 495.554022 43.326749 
L 496.548675 43.823968 
L 499.532632 46.846617 
L 500.527284 45.754306 
L 501.521937 42.870464 
L 502.516589 43.515963 
L 503.511242 45.006498 
L 504.505894 45.488009 
L 505.500546 45.316228 
L 506.495199 46.362517 
L 507.489851 46.447534 
L 508.484504 45.169608 
L 509.479156 46.923792 
L 510.473808 49.083136 
L 511.468461 49.301742 
L 512.463113 49.966262 
L 513.457766 48.526185 
L 514.452418 48.450709 
L 515.44707 48.600791 
L 516.441723 47.603993 
L 517.436375 48.33358 
L 518.431028 50.054755 
L 519.42568 50.160591 
L 520.420333 51.092266 
L 521.414985 52.311959 
L 522.409637 51.541642 
L 524.398942 53.156871 
L 525.393595 53.476085 
L 526.388247 55.358437 
L 527.382899 55.958693 
L 528.377552 55.844195 
L 529.372204 56.447908 
L 530.366857 58.607693 
L 531.361509 59.132448 
L 532.356161 57.57813 
L 533.350814 58.749961 
L 534.345466 58.274624 
L 535.340119 56.867721 
L 542.302685 62.559324 
L 543.297338 63.502953 
L 544.29199 63.102254 
L 545.286643 61.537624 
L 546.281295 62.066686 
L 547.275947 63.849867 
L 548.2706 64.970399 
L 549.265252 64.710213 
L 551.254557 61.404046 
L 553.243862 67.319793 
L 554.238514 67.983205 
L 555.233167 70.487708 
L 556.227819 68.271144 
L 557.222472 68.229517 
L 558.217124 68.4654 
L 560.206429 70.716656 
L 561.201081 71.545663 
L 562.195734 73.881785 
L 563.190386 73.482033 
L 564.185038 74.510454 
L 565.179691 74.060414 
L 566.174343 75.539714 
L 567.168996 77.360619 
L 569.1583 76.821282 
L 570.152953 74.525196 
L 571.147605 75.224943 
L 572.142258 77.983179 
L 573.13691 77.853697 
L 578.110172 78.691859 
L 579.104825 79.518722 
L 580.099477 81.912597 
L 581.094129 80.569602 
L 588.056696 86.366153 
L 589.051349 86.561306 
L 590.046001 85.586859 
L 591.040653 86.080133 
L 592.035306 88.446858 
L 593.029958 89.697787 
L 594.024611 89.757589 
L 595.019263 88.256564 
L 596.013915 90.555994 
L 597.008568 91.608372 
L 597.008568 91.608372 
" clip-path="url(#p016a75d837)" style="fill: none; stroke-dasharray: 5.55,2.4; stroke-dashoffset: 0; stroke: #000000; stroke-width: 1.5"/>
   </g>
   <g id="line2d_16">
    <path d="M 270.762579 28.673229 
L 275.735841 28.19205 
L 280.709103 27.942713 
L 286.677017 27.897081 
L 293.639584 28.087359 
L 303.586108 28.375676 
L 307.564718 28.2725 
L 311.543327 27.957219 
L 316.516589 27.290972 
L 326.463113 25.58754 
L 334.420333 24.358489 
L 341.382899 23.525103 
L 348.345466 22.92658 
L 358.29199 22.318372 
L 366.24921 22.041709 
L 373.211776 22.018003 
L 381.168996 22.204616 
L 390.120867 22.645449 
L 413.992525 24.198189 
L 419.960439 24.930593 
L 425.928354 25.895015 
L 434.880226 27.611028 
L 449.800012 30.730004 
L 459.746536 33.028863 
L 468.698407 35.271933 
L 468.698407 35.271933 
" clip-path="url(#p016a75d837)" style="fill: none; stroke: #ff7f0e; stroke-width: 1.5; stroke-linecap: square"/>
   </g>
   <g id="line2d_17">
    <defs>
     <path id="md64750a495" d="M 0 3 
C 0.795609 3 1.55874 2.683901 2.12132 2.12132 
C 2.683901 1.55874 3 0.795609 3 0 
C 3 -0.795609 2.683901 -1.55874 2.12132 -2.12132 
C 1.55874 -2.683901 0.795609 -3 0 -3 
C -0.795609 -3 -1.55874 -2.683901 -2.12132 -2.12132 
C -2.683901 -1.55874 -3 -0.795609 -3 0 
C -3 0.795609 -2.683901 1.55874 -2.12132 2.12132 
C -1.55874 2.683901 -0.795609 3 0 3 
z
" style="stroke: #2ca02c"/>
    </defs>
    <g clip-path="url(#p016a75d837)">
     <use xlink:href="#md64750a495" x="370.227819" y="22.003854" style="fill: #2ca02c; stroke: #2ca02c"/>
    </g>
   </g>
   <g id="patch_3">
    <path d="M 65.366857 284.4 
L 65.366857 7.2 
" style="fill: none; stroke: #000000; stroke-width: 1.5; stroke-linejoin: miter; stroke-linecap: square"/>
   </g>
   <g id="patch_4">
    <path d="M 65.366857 284.4 
L 623.366857 284.4 
" style="fill: none; stroke: #000000; stroke-width: 1.5; stroke-linejoin: miter; stroke-linecap: square"/>
   </g>
  </g>
 </g>
 <defs>
  <clipPath id="p016a75d837">
   <rect x="65.366857" y="7.2" width="558" height="277.2"/>
  </clipPath>
 </defs>
</svg>
